<svg id="图层_1" data-name="图层 1" xmlns="http://www.w3.org/2000/svg" xmlns:xlink="http://www.w3.org/1999/xlink" viewBox="0 0 489 136"><defs><style>.cls-1{fill:#781ff5;}.cls-2{fill:url(#未命名的渐变_5);}.cls-3{fill:url(#未命名的渐变_5-2);}.cls-4{fill:url(#未命名的渐变_9);}</style><linearGradient id="未命名的渐变_5" x1="12.2" y1="137.71" x2="120.66" y2="0.56" gradientUnits="userSpaceOnUse"><stop offset="0" stop-color="#e9a85e"/><stop offset="1" stop-color="#f52b76"/></linearGradient><linearGradient id="未命名的渐变_5-2" x1="11.69" y1="137.3" x2="120.15" y2="0.16" xlink:href="#未命名的渐变_5"/><linearGradient id="未命名的渐变_9" x1="-640.09" y1="1900.84" x2="-489.49" y2="1900.84" gradientTransform="matrix(0.83, 0.56, -0.56, 0.83, 1592.27, -1197.47)" gradientUnits="userSpaceOnUse"><stop offset="0" stop-color="#6a0cf5"/><stop offset="1" stop-color="#ab66f3"/></linearGradient></defs><polygon class="cls-1" points="237.67 42.79 223.3 42.79 206.01 63.93 188.73 42.79 174.35 42.79 198.82 72.72 171.46 106.2 185.83 106.2 206.01 81.51 226.19 106.2 240.57 106.2 213.2 72.72 237.67 42.79"/><path class="cls-1" d="M264.19,54.07a26.53,26.53,0,1,0,26.52,26.52A26.55,26.55,0,0,0,264.19,54.07Zm0,43.13A16.61,16.61,0,1,1,280.8,80.59,16.62,16.62,0,0,1,264.19,97.2Z"/><path class="cls-1" d="M357.17,54.07a26.36,26.36,0,0,0-16.5,5.79V42.72h-10V106.2h10v-4.87a26.52,26.52,0,1,0,16.5-47.26Zm0,43.13a16.62,16.62,0,0,1-16.5-14.79V78.77a16.61,16.61,0,1,1,16.5,18.43Z"/><path class="cls-1" d="M306.35,54.72h-10V106.2h10V81.29h.06A16.58,16.58,0,0,1,323,64.73v-10a26.38,26.38,0,0,0-16.62,5.87Z"/><path class="cls-1" d="M427.25,85.68V63.63H438v-8.9H427.25v-12h-10v12h-8.72v8.9h8.72V85.68c0,18.19,11.85,20.53,22.17,20.53v-10C428.92,96.19,427.25,93.7,427.25,85.68Z"/><rect class="cls-1" x="390.57" y="54.72" width="10.02" height="51.48"/><path class="cls-1" d="M395.69,37a6,6,0,1,0,6,6A6,6,0,0,0,395.69,37Z"/><path class="cls-1" d="M485.25,82.28c-2.4-2.28-6.12-4-11.05-5.18-10.9-2.39-13.4-3.35-14.33-3.85a5.23,5.23,0,0,1-2.93-4.91,5.62,5.62,0,0,1,2.59-4.63c1.56-1.14,4.1-1.43,7.43-1.43,3.67,0,6.9.87,8.74,3.13a8.75,8.75,0,0,1,1.54,3.36H487c-.78-4.61-2.68-7.82-5.8-9.8-3.71-2.34-8.61-3.52-14.58-3.52-6.2,0-11,1.54-14.37,4.59a14,14,0,0,0-4.95,10.77c0,3.47,1,6,2.95,7.81s6,3.59,11.41,4.94c10.92,2.58,13.46,3.62,14.45,4.24a5.7,5.7,0,0,1-.6,10c-1.79.9-4.35,1.08-7.25,1.08-5,0-8.29-.78-10.31-3a9,9,0,0,1-2.05-4.47H445.81a14.38,14.38,0,0,0,5,9.74c3.47,3.05,9,4.61,16.54,4.61s12.85-1.47,16.24-4.36a13.58,13.58,0,0,0,5-10.95A11,11,0,0,0,485.25,82.28Z"/><path class="cls-2" d="M45.36,69.77A70.07,70.07,0,0,0,58.55,81.14a72.38,72.38,0,0,0,13.26,7A100.28,100.28,0,0,0,92.48,60.41L123,0,69.78,41.84A100.42,100.42,0,0,0,45.36,69.77Z"/><path class="cls-3" d="M41,107.39c-3.82-2.55-7.43-5.24-10.84-8L11.7,136l33.18-26.09C43.58,109.08,42.28,108.25,41,107.39Z"/><path class="cls-4" d="M109.46,48.59c10,13.26,12.92,28,6.14,38.14-9.9,14.81-36.74,14.24-59.95-1.27s-34-40.09-24.1-54.9c6.78-10.14,21.51-13.07,37.59-8.92C41.33,9.83,14.87,11,4.61,26.32-8.27,45.6,9.32,80,43.89,103.07s73.05,26.2,85.93,6.93C140.07,94.65,131,69.76,109.46,48.59Z"/></svg>