<?xml version="1.0" encoding="UTF-8"?>
<svg id="_图层_1" data-name="图层 1" xmlns="http://www.w3.org/2000/svg" viewBox="0 0 510.24 141.73">
  <g>
    <polygon points="248.29 45.65 233.91 45.65 216.63 66.79 199.35 45.65 184.97 45.65 209.44 75.59 182.07 109.07 196.45 109.07 216.63 84.38 236.81 109.07 251.19 109.07 223.82 75.59 248.29 45.65"/>
    <path d="M274.81,56.94c-14.62,0-26.52,11.9-26.52,26.52s11.9,26.52,26.52,26.52,26.52-11.9,26.52-26.52-11.9-26.52-26.52-26.52Zm0,43.13c-9.16,0-16.6-7.45-16.6-16.61s7.45-16.6,16.6-16.6,16.61,7.45,16.61,16.6-7.45,16.61-16.61,16.61Z"/>
    <path d="M367.79,56.94c-6.24,0-11.97,2.17-16.5,5.78v-17.13h-10.02v63.48h10.02v-4.87c4.53,3.62,10.27,5.78,16.5,5.78,14.62,0,26.52-11.9,26.52-26.52s-11.9-26.52-26.52-26.52Zm0,43.13c-8.54,0-15.59-6.48-16.5-14.79v-3.64c.91-8.3,7.96-14.79,16.5-14.79,9.16,0,16.61,7.45,16.61,16.6s-7.45,16.61-16.61,16.61Z"/>
    <path d="M316.96,57.59h-10.02v51.48h10.02v-24.91h.07c0-9.13,7.43-16.55,16.56-16.55v-10.02c-6.29,0-12.07,2.2-16.62,5.86v-5.85Z"/>
    <path d="M437.87,88.55v-22.05h10.79v-8.9h-10.79v-12.01h-10.02v12.01h-8.72v8.9h8.72v22.05c0,18.2,11.85,20.53,22.17,20.53v-10.02c-10.48,0-12.15-2.49-12.15-10.51Z"/>
    <rect x="401.19" y="57.59" width="10.02" height="51.48"/>
    <path d="M406.31,39.85c-3.33,0-6.03,2.7-6.03,6.03s2.7,6.03,6.03,6.03,6.03-2.7,6.03-6.03-2.7-6.03-6.03-6.03Z"/>
    <path d="M495.87,85.15c-2.4-2.29-6.12-4.03-11.05-5.18-10.9-2.4-13.4-3.35-14.33-3.85-1.92-1.01-2.93-2.7-2.93-4.91,0-1.81,.87-3.37,2.58-4.63,1.56-1.15,4.1-1.44,7.43-1.44,3.67,0,6.9,.88,8.74,3.13,.71,.91,1.22,2.04,1.54,3.36h9.72c-.78-4.61-2.68-7.82-5.8-9.8-3.7-2.34-8.61-3.53-14.58-3.53s-11.03,1.54-14.37,4.59c-3.33,3.05-4.95,6.57-4.95,10.77,0,3.47,.97,6.02,2.95,7.81,2.12,1.93,5.96,3.6,11.41,4.95,10.92,2.58,13.46,3.62,14.45,4.23,1.78,1.11,2.71,2.82,2.71,4.94,0,2.25-1.15,4.02-3.31,5.11-1.79,.9-4.36,1.08-7.25,1.08-5.04,0-8.29-.78-10.31-2.94-.98-1.04-1.65-2.51-2.05-4.47h-10.05c.38,3.9,2.03,7.08,5.03,9.73,3.46,3.06,9.03,4.61,16.54,4.61s12.84-1.46,16.24-4.35c3.36-2.85,5-6.44,5-10.96,0-3.35-1.1-6.05-3.36-8.25Z"/>
  </g>
  <g>
    <g>
      <path d="M55.97,72.63c3.7,4.11,8.13,7.99,13.19,11.37,4.3,2.87,8.77,5.22,13.27,7.02,8.42-7.97,15.43-17.35,20.67-27.74L133.56,2.88l-53.17,41.82c-9.82,7.72-18.09,17.2-24.42,27.93Z"/>
      <path d="M51.62,110.26c-3.82-2.56-7.43-5.24-10.84-8.01l-18.46,36.6,33.18-26.1c-1.3-.81-2.6-1.64-3.88-2.49Z"/>
    </g>
    <path d="M120.08,51.46c9.98,13.26,12.92,27.99,6.14,38.14-9.9,14.81-36.74,14.24-59.95-1.27-23.21-15.51-34-40.09-24.11-54.9,6.78-10.15,21.52-13.07,37.59-8.92C51.95,12.7,25.49,13.85,15.23,29.19c-12.88,19.28,4.7,53.64,39.28,76.74,34.57,23.11,73.05,26.21,85.93,6.93,10.25-15.34,1.19-40.23-20.36-61.41Z"/>
  </g>
</svg>
